<?xml version="1.0" encoding="UTF-8"?>
<svg xmlns="http://www.w3.org/2000/svg" viewBox="0 0 1044 524" width="1044" height="524">
<line x1="120" y1="34" x2="120" y2="496" stroke="#c9c2b8" stroke-width="1" stroke-dasharray="4 5" />
<line x1="176" y1="34" x2="176" y2="496" stroke="#c9c2b8" stroke-width="1" stroke-dasharray="4 5" />
<line x1="232" y1="34" x2="232" y2="496" stroke="#c9c2b8" stroke-width="1" stroke-dasharray="4 5" />
<line x1="288" y1="34" x2="288" y2="496" stroke="#c9c2b8" stroke-width="1" stroke-dasharray="4 5" />
<line x1="344" y1="34" x2="344" y2="496" stroke="#c9c2b8" stroke-width="1" stroke-dasharray="4 5" />
<line x1="400" y1="34" x2="400" y2="496" stroke="#c9c2b8" stroke-width="1" stroke-dasharray="4 5" />
<line x1="456" y1="34" x2="456" y2="496" stroke="#c9c2b8" stroke-width="1" stroke-dasharray="4 5" />
<line x1="512" y1="34" x2="512" y2="496" stroke="#c9c2b8" stroke-width="1" stroke-dasharray="4 5" />
<line x1="568" y1="34" x2="568" y2="496" stroke="#c9c2b8" stroke-width="1" stroke-dasharray="4 5" />
<line x1="624" y1="34" x2="624" y2="496" stroke="#c9c2b8" stroke-width="1" stroke-dasharray="4 5" />
<line x1="680" y1="34" x2="680" y2="496" stroke="#c9c2b8" stroke-width="1" stroke-dasharray="4 5" />
<line x1="736" y1="34" x2="736" y2="496" stroke="#c9c2b8" stroke-width="1" stroke-dasharray="4 5" />
<line x1="792" y1="34" x2="792" y2="496" stroke="#c9c2b8" stroke-width="1" stroke-dasharray="4 5" />
<line x1="848" y1="34" x2="848" y2="496" stroke="#c9c2b8" stroke-width="1" stroke-dasharray="4 5" />
<line x1="904" y1="34" x2="904" y2="496" stroke="#c9c2b8" stroke-width="1" stroke-dasharray="4 5" />
<line x1="960" y1="34" x2="960" y2="496" stroke="#c9c2b8" stroke-width="1" stroke-dasharray="4 5" />
<line x1="1016" y1="34" x2="1016" y2="496" stroke="#c9c2b8" stroke-width="1" stroke-dasharray="4 5" />
<text x="148.0" y="26" font-size="20" font-weight="700" text-anchor="middle" fill="#1f2937">1</text>
<text x="204.0" y="26" font-size="20" font-weight="700" text-anchor="middle" fill="#1f2937">0</text>
<text x="260.0" y="26" font-size="20" font-weight="700" text-anchor="middle" fill="#1f2937">0</text>
<text x="316.0" y="26" font-size="20" font-weight="700" text-anchor="middle" fill="#1f2937">1</text>
<text x="372.0" y="26" font-size="20" font-weight="700" text-anchor="middle" fill="#1f2937">1</text>
<text x="428.0" y="26" font-size="20" font-weight="700" text-anchor="middle" fill="#1f2937">1</text>
<text x="484.0" y="26" font-size="20" font-weight="700" text-anchor="middle" fill="#1f2937">1</text>
<text x="540.0" y="26" font-size="20" font-weight="700" text-anchor="middle" fill="#1f2937">1</text>
<text x="596.0" y="26" font-size="20" font-weight="700" text-anchor="middle" fill="#1f2937">0</text>
<text x="652.0" y="26" font-size="20" font-weight="700" text-anchor="middle" fill="#1f2937">0</text>
<text x="708.0" y="26" font-size="20" font-weight="700" text-anchor="middle" fill="#1f2937">0</text>
<text x="764.0" y="26" font-size="20" font-weight="700" text-anchor="middle" fill="#1f2937">1</text>
<text x="820.0" y="26" font-size="20" font-weight="700" text-anchor="middle" fill="#1f2937">0</text>
<text x="876.0" y="26" font-size="20" font-weight="700" text-anchor="middle" fill="#1f2937">0</text>
<text x="932.0" y="26" font-size="20" font-weight="700" text-anchor="middle" fill="#1f2937">0</text>
<text x="988.0" y="26" font-size="20" font-weight="700" text-anchor="middle" fill="#1f2937">1</text>
<text x="18" y="72" font-size="18" font-weight="700" text-anchor="start" fill="#1f2937">NRZ</text>
<line x1="106" y1="64" x2="1026" y2="64" stroke="#c9c2b8" stroke-width="1.2" />
<path d="M 120 42 H 176 V 86 H 232 H 288 V 42 H 344 H 400 H 456 H 512 H 568 V 86 H 624 H 680 H 736 V 42 H 792 V 86 H 848 H 904 H 960 V 42 H 1016" fill="none" stroke="#111827" stroke-width="3" stroke-linejoin="round" stroke-linecap="round" />
<text x="18" y="164" font-size="18" font-weight="700" text-anchor="start" fill="#1f2937">NRZI</text>
<line x1="106" y1="156" x2="1026" y2="156" stroke="#c9c2b8" stroke-width="1.2" />
<path d="M 120 134 H 176 H 232 H 288 V 178 H 344 V 134 H 400 V 178 H 456 V 134 H 512 V 178 H 568 H 624 H 680 H 736 V 134 H 792 H 848 H 904 H 960 V 178 H 1016" fill="none" stroke="#111827" stroke-width="3" stroke-linejoin="round" stroke-linecap="round" />
<text x="18" y="256" font-size="18" font-weight="700" text-anchor="start" fill="#1f2937">Manchester</text>
<line x1="106" y1="248" x2="1026" y2="248" stroke="#c9c2b8" stroke-width="1.2" />
<path d="M 120 270 H 148.0 V 226 H 176.0 H 204.0 V 270 H 232.0 V 226 H 260.0 V 270 H 288.0 H 316.0 V 226 H 344.0 V 270 H 372.0 V 226 H 400.0 V 270 H 428.0 V 226 H 456.0 V 270 H 484.0 V 226 H 512.0 V 270 H 540.0 V 226 H 568.0 H 596.0 V 270 H 624.0 V 226 H 652.0 V 270 H 680.0 V 226 H 708.0 V 270 H 736.0 H 764.0 V 226 H 792.0 H 820.0 V 270 H 848.0 V 226 H 876.0 V 270 H 904.0 V 226 H 932.0 V 270 H 960.0 H 988.0 V 226 H 1016.0" fill="none" stroke="#111827" stroke-width="3" stroke-linejoin="round" stroke-linecap="round" />
<text x="18" y="348" font-size="18" font-weight="700" text-anchor="start" fill="#1f2937">Diff Manchester</text>
<line x1="106" y1="340" x2="1026" y2="340" stroke="#c9c2b8" stroke-width="1.2" />
<path d="M 120 362 H 148.0 V 318 H 176.0 V 362 H 204.0 V 318 H 232.0 V 362 H 260.0 V 318 H 288.0 H 316.0 V 362 H 344.0 H 372.0 V 318 H 400.0 H 428.0 V 362 H 456.0 H 484.0 V 318 H 512.0 H 540.0 V 362 H 568.0 V 318 H 596.0 V 362 H 624.0 V 318 H 652.0 V 362 H 680.0 V 318 H 708.0 V 362 H 736.0 H 764.0 V 318 H 792.0 V 362 H 820.0 V 318 H 848.0 V 362 H 876.0 V 318 H 904.0 V 362 H 932.0 V 318 H 960.0 H 988.0 V 362 H 1016.0" fill="none" stroke="#111827" stroke-width="3" stroke-linejoin="round" stroke-linecap="round" />
<text x="18" y="440" font-size="18" font-weight="700" text-anchor="start" fill="#1f2937">Clock</text>
<line x1="106" y1="432" x2="1026" y2="432" stroke="#c9c2b8" stroke-width="1.2" />
<path d="M 120 410 H 148.0 V 454 H 176.0 V 410 H 204.0 V 454 H 232.0 V 410 H 260.0 V 454 H 288.0 V 410 H 316.0 V 454 H 344.0 V 410 H 372.0 V 454 H 400.0 V 410 H 428.0 V 454 H 456.0 V 410 H 484.0 V 454 H 512.0 V 410 H 540.0 V 454 H 568.0 V 410 H 596.0 V 454 H 624.0 V 410 H 652.0 V 454 H 680.0 V 410 H 708.0 V 454 H 736.0 V 410 H 764.0 V 454 H 792.0 V 410 H 820.0 V 454 H 848.0 V 410 H 876.0 V 454 H 904.0 V 410 H 932.0 V 454 H 960.0 V 410 H 988.0 V 454 H 1016.0" fill="none" stroke="#111827" stroke-width="3" stroke-linejoin="round" stroke-linecap="round" />
</svg>